# Blender v2.91.0 OBJ File: ''
# www.blender.org
mtllib Generic_Building.mtl
o Cube_Cube.001
v -29.938768 -0.112678 26.085962
v -29.938768 0.112678 26.085962
v -29.938768 -0.112678 -26.302782
v -29.938768 0.112678 -26.302782
v 30.314470 -0.112678 26.085962
v 30.314470 0.112678 26.085962
v 30.314470 -0.112678 -26.302782
v 30.314470 0.112678 -26.302782
v -29.938768 -0.112678 26.085962
v -29.938768 0.112678 -26.302782
vt 0.375000 0.000000
vt 0.625000 0.000000
vt 0.625000 0.250000
vt 0.375000 0.250000
vt 0.625000 0.500000
vt 0.375000 0.500000
vt 0.625000 0.750000
vt 0.375000 0.750000
vt 0.625000 1.000000
vt 0.375000 1.000000
vt 0.125000 0.500000
vt 0.125000 0.750000
vt 0.875000 0.500000
vt 0.875000 0.750000
vn -1.0000 0.0000 0.0000
vn 0.0000 0.0000 -1.0000
vn 1.0000 0.0000 0.0000
vn 0.0000 0.0000 1.0000
vn 0.0000 -1.0000 0.0000
vn 0.0000 1.0000 0.0000
usemtl None
s off
f 1/1/1 2/2/1 4/3/1 3/4/1
f 3/4/2 4/3/2 8/5/2 7/6/2
f 7/6/3 8/5/3 6/7/3 5/8/3
f 5/8/4 6/7/4 2/9/4 1/10/4
f 3/11/5 7/6/5 5/8/5 1/12/5
f 8/5/6 4/13/6 2/14/6 6/7/6
l 1 9
l 4 10
o Cube.001_Cube.002
v -30.119862 167.282166 26.194370
v -29.894506 167.282166 26.194370
v -30.119862 167.282166 -26.194370
v -29.894506 167.282166 -26.194370
v -30.119867 0.011833 26.194370
v -29.894512 0.011833 26.194370
v -30.119867 0.011833 -26.194370
v -29.894512 0.011833 -26.194370
v -30.119862 167.282166 26.194370
v -29.894506 167.282166 -26.194370
v -29.894512 0.011833 -16.091951
v -29.894512 0.011833 -0.840175
v -29.894512 13.930550 -16.125835
v -29.894512 13.930550 -0.731761
vt 0.375000 0.000000
vt 0.625000 0.000000
vt 0.625000 0.250000
vt 0.375000 0.250000
vt 0.625000 0.500000
vt 0.375000 0.500000
vt 0.625000 0.548209
vt 0.625000 0.620991
vt 0.625000 0.750000
vt 0.375000 0.750000
vt 0.625000 1.000000
vt 0.375000 1.000000
vt 0.125000 0.500000
vt 0.125000 0.750000
vt 0.875000 0.500000
vt 0.875000 0.750000
vt 0.645803 0.621508
vt 0.645803 0.548047
vn 0.0000 1.0000 0.0000
vn 0.0000 0.0000 -1.0000
vn 0.0000 -1.0000 0.0000
vn 0.0000 0.0000 1.0000
vn -1.0000 0.0000 0.0000
vn 1.0000 -0.0000 0.0000
usemtl None
s off
f 11/15/7 12/16/7 14/17/7 13/18/7
f 13/18/8 14/17/8 18/19/8 17/20/8
f 17/20/9 18/19/9 21/21/9 22/22/9 16/23/9 15/24/9
f 15/24/10 16/23/10 12/25/10 11/26/10
f 13/27/11 17/20/11 15/24/11 11/28/11
f 18/19/12 14/29/12 12/30/12 16/23/12 22/22/12 24/31/12 23/32/12 21/21/12
f 21/21/12 23/32/12 24/31/12 22/22/12
l 11 19
l 14 20
o Cube.002_Cube.003
v 29.775589 167.282166 26.194370
v 30.000944 167.282166 26.194370
v 29.775589 167.282166 -26.194370
v 30.000944 167.282166 -26.194370
v 29.775583 0.011833 26.194370
v 30.000938 0.011833 26.194370
v 29.775583 0.011833 -26.194370
v 30.000938 0.011833 -26.194370
v 29.775589 167.282166 26.194370
v 30.000944 167.282166 -26.194370
v 29.775583 0.011833 -8.210995
v 30.000938 0.011833 -8.210995
v 29.775583 24.464302 -8.210995
v 30.000938 24.464302 -8.210995
v 29.775583 0.011833 8.210995
v 30.000938 0.011833 8.210995
v 29.775583 24.464302 8.210995
v 30.000938 24.464302 8.210995
vt 0.375000 0.000000
vt 0.625000 0.000000
vt 0.625000 0.250000
vt 0.375000 0.250000
vt 0.625000 0.500000
vt 0.375000 0.500000
vt 0.375000 0.750000
vt 0.625000 0.750000
vt 0.625000 1.000000
vt 0.375000 1.000000
vt 0.625000 0.331552
vt 0.625000 0.303383
vt 0.500060 0.303383
vt 0.500060 0.331552
vt 0.500060 0.946617
vt 0.625000 0.946617
vt 0.625000 0.918448
vt 0.500060 0.918448
vt 0.793448 0.750000
vt 0.821617 0.750000
vt 0.821617 0.500000
vt 0.793448 0.500000
vt 0.375000 0.585817
vt 0.625000 0.585817
vt 0.375000 0.664183
vt 0.625000 0.664183
vt 0.125000 0.750000
vt 0.125000 0.500000
vt 0.338454 0.585817
vt 0.338454 0.664183
vt 0.875000 0.500000
vt 0.875000 0.750000
vt 0.661546 0.664183
vt 0.661546 0.585817
vn 0.0000 1.0000 0.0000
vn 0.0000 0.0000 -1.0000
vn 0.0000 0.0000 1.0000
vn 0.0000 -1.0000 0.0000
vn -1.0000 0.0000 0.0000
vn 1.0000 -0.0000 0.0000
usemtl None
s off
f 25/33/13 26/34/13 28/35/13 27/36/13
f 27/36/14 28/35/14 32/37/14 31/38/14
f 29/39/15 30/40/15 26/41/15 25/42/15
f 38/43/15 37/44/15 35/45/15 36/46/15
f 39/47/14 41/48/14 42/49/14 40/50/14
f 42/51/16 41/52/16 37/53/16 38/54/16
f 35/55/16 31/38/16 32/37/16 36/56/16
f 30/40/16 29/39/16 39/57/16 40/58/16
f 29/39/17 25/59/17 27/60/17 31/38/17 35/55/17 37/61/17 41/62/17 39/57/17
f 36/56/18 32/37/18 28/63/18 26/64/18 30/40/18 40/58/18 42/65/18 38/66/18
l 25 33
l 28 34
o Cube.003_Cube.004
v -29.983158 167.282166 -25.987514
v -29.983158 167.282166 -25.762159
v 29.804344 167.282166 -25.987513
v 29.804344 167.282166 -25.762157
v -29.983166 0.011833 -25.987514
v -29.983166 0.011833 -25.762159
v 29.804337 0.011833 -25.987513
v 29.804337 0.011833 -25.762157
v -29.983158 167.282166 -25.987514
v 29.804344 167.282166 -25.762157
vt 0.375000 0.000000
vt 0.625000 0.000000
vt 0.625000 0.250000
vt 0.375000 0.250000
vt 0.625000 0.500000
vt 0.375000 0.500000
vt 0.625000 0.750000
vt 0.375000 0.750000
vt 0.625000 1.000000
vt 0.375000 1.000000
vt 0.125000 0.500000
vt 0.125000 0.750000
vt 0.875000 0.500000
vt 0.875000 0.750000
vn 0.0000 1.0000 0.0000
vn 1.0000 -0.0000 0.0000
vn 0.0000 -1.0000 0.0000
vn -1.0000 0.0000 0.0000
vn 0.0000 -0.0000 -1.0000
vn 0.0000 0.0000 1.0000
usemtl None
s off
f 43/67/19 44/68/19 46/69/19 45/70/19
f 45/70/20 46/69/20 50/71/20 49/72/20
f 49/72/21 50/71/21 48/73/21 47/74/21
f 47/74/22 48/73/22 44/75/22 43/76/22
f 45/77/23 49/72/23 47/74/23 43/78/23
f 50/71/24 46/79/24 44/80/24 48/73/24
l 43 51
l 46 52
o Cube.004_Cube.005
v -29.983158 167.282166 26.129189
v -29.983158 167.282166 26.354544
v 29.804344 167.282166 26.129190
v 29.804344 167.282166 26.354546
v -29.983166 0.011833 26.129189
v -29.983166 0.011833 26.354544
v 29.804337 0.011833 26.129190
v 29.804337 0.011833 26.354546
v -29.983158 167.282166 26.129189
v 29.804344 167.282166 26.354546
vt 0.375000 0.000000
vt 0.625000 0.000000
vt 0.625000 0.250000
vt 0.375000 0.250000
vt 0.625000 0.500000
vt 0.375000 0.500000
vt 0.625000 0.750000
vt 0.375000 0.750000
vt 0.625000 1.000000
vt 0.375000 1.000000
vt 0.125000 0.500000
vt 0.125000 0.750000
vt 0.875000 0.500000
vt 0.875000 0.750000
vn 0.0000 1.0000 0.0000
vn 1.0000 -0.0000 0.0000
vn 0.0000 -1.0000 0.0000
vn -1.0000 0.0000 0.0000
vn 0.0000 -0.0000 -1.0000
vn -0.0000 0.0000 1.0000
usemtl None
s off
f 53/81/25 54/82/25 56/83/25 55/84/25
f 55/84/26 56/83/26 60/85/26 59/86/26
f 59/86/27 60/85/27 58/87/27 57/88/27
f 57/88/28 58/87/28 54/89/28 53/90/28
f 55/91/29 59/86/29 57/88/29 53/92/29
f 60/85/30 56/93/30 54/94/30 58/87/30
l 53 61
l 56 62
o Cube.005_Cube.006
v -30.126619 167.088455 26.194372
v -30.126619 167.313797 26.194372
v -30.126619 167.088455 -26.194372
v -30.126619 167.313797 -26.194372
v 30.126619 167.088455 26.194372
v 30.126619 167.313797 26.194372
v 30.126619 167.088455 -26.194372
v 30.126619 167.313797 -26.194372
v -30.126619 167.088455 26.194372
v -30.126619 167.313797 -26.194372
vt 0.375000 0.000000
vt 0.625000 0.000000
vt 0.625000 0.250000
vt 0.375000 0.250000
vt 0.625000 0.500000
vt 0.375000 0.500000
vt 0.625000 0.750000
vt 0.375000 0.750000
vt 0.625000 1.000000
vt 0.375000 1.000000
vt 0.125000 0.500000
vt 0.125000 0.750000
vt 0.875000 0.500000
vt 0.875000 0.750000
vn -1.0000 0.0000 0.0000
vn 0.0000 0.0000 -1.0000
vn 1.0000 0.0000 0.0000
vn 0.0000 0.0000 1.0000
vn 0.0000 -1.0000 0.0000
vn 0.0000 1.0000 0.0000
usemtl None
s off
f 63/95/31 64/96/31 66/97/31 65/98/31
f 65/98/32 66/97/32 70/99/32 69/100/32
f 69/100/33 70/99/33 68/101/33 67/102/33
f 67/102/34 68/101/34 64/103/34 63/104/34
f 65/105/35 69/100/35 67/102/35 63/106/35
f 70/99/36 66/107/36 64/108/36 68/101/36
l 63 71
l 66 72
