# Apple ModelIO OBJ File: paperbagobj
mtllib paperbagobj.mtl
g Cube_Material
v -1.12666 2.18624 -0.248964
v -1.66049 2.45557 0.339931
v -1.27419 -1.65402 0.710783
v -1.26997 -1.65099 -0.609835
v 1.75392 -2.19632 0.914976
v 1.58898 2.4812 0.301937
v -1.74581 -2.1933 0.956277
v -1.75003 -2.19632 -0.851201
v 1.75003 -2.19632 -0.851201
v 1.51 2.49064 -0.248964
v 1.26997 -1.65099 -0.609835
v 1.26608 -1.65099 0.676096
vn 0.9632 0.0298 0.2672
vn 0.0112 0.1308 0.9913
vn -0.9718 0.0759 -0.2234
vn -0.0004 -1 0.0008
vn 0.9984 0.0431 -0.0355
vn -0.0065 0.1319 -0.9912
vn -0.0006 1 0.0012
vn -0.9968 0.0679 0.0411
vn 0.0053 -0.0903 0.9959
vn -0.0121 -0.0901 -0.9959
vt 0.625 0.25
vt 0.625 0
vt 0.375 0.75
vt 0.625 0.75
vt 0.625 1
vt 0.375 1
vt 0.375 0
vt 0.375 0.25
vt 0.125 0.5
vt 0.375 0.5
vt 0.125 0.75
vt 0.625 0.5
vt 0.875 0.5
vt 0.875 0.75
usemtl Material
f 1/1/1 2/2/1 3/2/1
f 1/1/1 3/2/1 4/1/1
f 5/3/2 6/4/2 2/5/2
f 5/3/2 2/5/2 7/6/2
f 7/7/3 2/2/3 1/1/3
f 7/7/3 1/1/3 8/8/3
f 8/9/4 9/10/4 5/3/4
f 8/9/4 5/3/4 7/11/4
f 9/10/5 10/12/5 6/4/5
f 9/10/5 6/4/5 5/3/5
f 8/8/6 1/1/6 9/10/6
f 1/1/6 10/12/6 9/10/6
f 11/12/7 4/13/7 3/14/7
f 11/12/7 3/14/7 12/4/7
f 6/4/8 10/12/8 11/12/8
f 6/4/8 11/12/8 12/4/8
f 10/12/9 1/1/9 4/1/9
f 10/12/9 4/1/9 11/12/9
f 2/5/10 6/4/10 3/5/10
f 6/4/10 12/4/10 3/5/10
s off
